<svg xmlns="http://www.w3.org/2000/svg" viewBox="0 0 860 418" width="860" height="418" role="img" aria-label="The generation benchmark" font-family="-apple-system, BlinkMacSystemFont, &quot;Segoe UI&quot;, &quot;Noto Sans&quot;, Helvetica, Arial, sans-serif">
<title>The generation benchmark</title>
<desc>Pinned OpenCode runs for prompt and model comparison.</desc>
<defs><pattern id="dots" width="18" height="18" patternUnits="userSpaceOnUse"><circle cx="1.5" cy="1.5" r="1" fill="rgba(110,118,129,.22)"/></pattern><marker id="mk-added" viewBox="0 0 10 10" refX="8" refY="5" markerWidth="6.5" markerHeight="6.5" orient="auto-start-reverse"><path d="M0,0 L10,5 L0,10 z" fill="#3fb950"/></marker><marker id="mko-added" viewBox="0 0 10 10" refX="10" refY="5" markerWidth="6.5" markerHeight="6.5" orient="auto-start-reverse"><path d="M2,1 L10,5 L2,9" fill="none" stroke="#3fb950" stroke-width="1.6" stroke-linecap="round" stroke-linejoin="round"/></marker><marker id="mk-modified" viewBox="0 0 10 10" refX="8" refY="5" markerWidth="6.5" markerHeight="6.5" orient="auto-start-reverse"><path d="M0,0 L10,5 L0,10 z" fill="#d29922"/></marker><marker id="mko-modified" viewBox="0 0 10 10" refX="10" refY="5" markerWidth="6.5" markerHeight="6.5" orient="auto-start-reverse"><path d="M2,1 L10,5 L2,9" fill="none" stroke="#d29922" stroke-width="1.6" stroke-linecap="round" stroke-linejoin="round"/></marker><marker id="mk-removed" viewBox="0 0 10 10" refX="8" refY="5" markerWidth="6.5" markerHeight="6.5" orient="auto-start-reverse"><path d="M0,0 L10,5 L0,10 z" fill="#f85149"/></marker><marker id="mko-removed" viewBox="0 0 10 10" refX="10" refY="5" markerWidth="6.5" markerHeight="6.5" orient="auto-start-reverse"><path d="M2,1 L10,5 L2,9" fill="none" stroke="#f85149" stroke-width="1.6" stroke-linecap="round" stroke-linejoin="round"/></marker><marker id="mk-neutral" viewBox="0 0 10 10" refX="8" refY="5" markerWidth="6.5" markerHeight="6.5" orient="auto-start-reverse"><path d="M0,0 L10,5 L0,10 z" fill="#6e7681"/></marker><marker id="mko-neutral" viewBox="0 0 10 10" refX="10" refY="5" markerWidth="6.5" markerHeight="6.5" orient="auto-start-reverse"><path d="M2,1 L10,5 L2,9" fill="none" stroke="#6e7681" stroke-width="1.6" stroke-linecap="round" stroke-linejoin="round"/></marker></defs>
<rect x="0" y="0" width="860" height="418" rx="12" fill="#0d1117"/>
<rect x="0" y="0" width="860" height="418" rx="12" fill="url(#dots)"/>
<g><rect class="lanebox" x="16" y="44" width="404" height="358" rx="12" fill="rgba(110,118,129,.07)"/>
<text class="lanelabel" x="32" y="68" font-size="10" font-weight="700" letter-spacing=".12em" fill="#9198a1">README TOOLING · SCRIPTS/README (BUN)</text>
<rect class="lanebox" x="440" y="44" width="404" height="358" rx="12" fill="rgba(110,118,129,.07)"/>
<text class="lanelabel" x="456" y="68" font-size="10" font-weight="700" letter-spacing=".12em" fill="#9198a1">OUTSIDE THIS REPO</text></g>
<g><path class="edge edge-added" d="M166,154 L166,206" marker-end="url(#mk-added)" fill="none" stroke="#3fb950" stroke-width="1.5"/>
<path class="edge edge-added" d="M218,268 L218,320" marker-end="url(#mk-added)" fill="none" stroke="#3fb950" stroke-width="1.5"/>
<path class="edge edge-added" d="M404,229 L413,229 C417.97,229 422,233.03 422,238 L422,257.5 C422,273.24 434.76,286 450.5,286 L721,286 C730.39,286 738,293.61 738,303 L738,320" marker-end="url(#mk-added)" fill="none" stroke="#3fb950" stroke-width="1.5"/>
<circle r="2.6" fill="#3fb950"><animateMotion dur="1.6s" repeatCount="indefinite" path="M404,229 L413,229 C417.97,229 422,233.03 422,238 L422,257.5 C422,273.24 434.76,286 450.5,286 L721,286 C730.39,286 738,293.61 738,303 L738,320"/></circle>
<path class="edge edge-added" d="M404,245 L421,245 C430.39,245 438,252.61 438,262 L438,342 C438,346.97 442.03,351 447,351 L456,351" marker-end="url(#mk-added)" fill="none" stroke="#3fb950" stroke-width="1.5"/>
<path class="edge edge-added faded" d="M270,154 L270,206" marker-end="url(#mk-added)" fill="none" stroke="#3fb950" stroke-width="1.5" opacity="0.45"/></g>
<g><g class="cardsh" filter="drop-shadow(0 1px 2px rgba(0,0,0,.28))"><rect class="card card-added" x="32" y="92" width="180" height="62" rx="10" fill="#1c2128" stroke-width="1" stroke="#3fb950" stroke-opacity="0.55"/>
<rect class="chip" x="46" y="110" width="26" height="26" rx="7" fill="rgba(110,118,129,.18)"/><g><rect class="glyph-stroke" x="52" y="117" width="14" height="12" rx="2" stroke="#9198a1" stroke-width="1.4" fill="none"/>
<path class="glyph-stroke" d="M52,121 h14" stroke="#9198a1" stroke-width="1.4" fill="none"/></g>
<text class="ntitle" x="82" y="119" font-size="11.5" font-weight="600" fill="#e6edf3">generate.ts</text>
<text class="nsub" x="82" y="137" font-size="9.5" fill="#9198a1" font-family="ui-monospace, SFMono-Regular, &quot;SF Mono&quot;, Menlo, Consolas, monospace">--manifest</text>
<g class="bdg bdg-added"><rect x="164.45" y="84" width="40.55" height="16" rx="8" fill="rgba(46,160,67,.15)" stroke="rgba(63,185,80,.4)" stroke-width="1"/><text x="184.73" y="95" text-anchor="middle" font-size="8.5" font-weight="700" letter-spacing=".06em" fill="#3fb950">NEW</text></g></g>
<g class="cardsh" filter="drop-shadow(0 1px 2px rgba(0,0,0,.28))"><rect class="card card-added" x="224" y="92" width="180" height="62" rx="10" fill="#1c2128" stroke-width="1" stroke="#3fb950" stroke-opacity="0.55"/>
<rect class="chip" x="238" y="110" width="26" height="26" rx="7" fill="rgba(110,118,129,.18)"/><g><path class="glyph-stroke" d="M245,123 l4,4 l8,-8" stroke="#9198a1" stroke-width="1.4" fill="none"/></g>
<text class="ntitle" x="274" y="119" font-size="11.5" font-weight="600" fill="#e6edf3">Tests + fixtures</text>
<text class="nsub" x="274" y="137" font-size="9.5" fill="#9198a1" font-family="ui-monospace, SFMono-Regular, &quot;SF Mono&quot;, Menlo, Consolas, monospace">14 fixture repos</text>
<g class="bdg bdg-added"><rect x="356.45" y="84" width="40.55" height="16" rx="8" fill="rgba(46,160,67,.15)" stroke="rgba(63,185,80,.4)" stroke-width="1"/><text x="376.73" y="95" text-anchor="middle" font-size="8.5" font-weight="700" letter-spacing=".06em" fill="#3fb950">NEW</text></g></g>
<g class="cardsh" filter="drop-shadow(0 1px 2px rgba(0,0,0,.28))"><rect class="card card-added" x="32" y="206" width="372" height="62" rx="10" fill="#1c2128" stroke-width="1" stroke="#3fb950" stroke-opacity="0.55"/>
<rect class="chip" x="46" y="224" width="26" height="26" rx="7" fill="rgba(110,118,129,.18)"/><g><text class="glyph" x="59" y="241.5" text-anchor="middle" fill="#9198a1" font-size="11" font-family="ui-monospace, SFMono-Regular, &quot;SF Mono&quot;, Menlo, Consolas, monospace">{ }</text></g>
<text class="ntitle" x="82" y="233" font-size="13" font-weight="600" fill="#e6edf3">generator.ts</text>
<text class="nsub" x="82" y="251" font-size="9.5" fill="#9198a1" font-family="ui-monospace, SFMono-Regular, &quot;SF Mono&quot;, Menlo, Consolas, monospace">runGeneration</text>
<g class="bdg bdg-added"><rect x="356.45" y="198" width="40.55" height="16" rx="8" fill="rgba(46,160,67,.15)" stroke="rgba(63,185,80,.4)" stroke-width="1"/><text x="376.73" y="209" text-anchor="middle" font-size="8.5" font-weight="700" letter-spacing=".06em" fill="#3fb950">NEW</text></g></g>
<g class="cardsh" filter="drop-shadow(0 1px 2px rgba(0,0,0,.28))"><rect class="card card-added" x="32" y="320" width="372" height="62" rx="10" fill="#1c2128" stroke-width="1" stroke="#3fb950" stroke-opacity="0.55"/>
<rect class="chip" x="46" y="338" width="26" height="26" rx="7" fill="rgba(110,118,129,.18)"/><g><path class="glyph-stroke" d="M52,347 h14" stroke="#9198a1" stroke-width="1.4" fill="none"/>
<path class="glyph-stroke" d="M52,355 h14" stroke="#9198a1" stroke-width="1.4" fill="none"/>
<circle class="glyph" fill="#9198a1" cx="57" cy="347" r="2.2"/>
<circle class="glyph" fill="#9198a1" cx="62" cy="355" r="2.2"/></g>
<text class="ntitle" x="82" y="347" font-size="13" font-weight="600" fill="#e6edf3">Generation manifests</text>
<text class="nsub" x="82" y="365" font-size="9.5" fill="#9198a1" font-family="ui-monospace, SFMono-Regular, &quot;SF Mono&quot;, Menlo, Consolas, monospace">prompt v1-v4 + 10 runs</text>
<g class="bdg bdg-added"><rect x="356.45" y="312" width="40.55" height="16" rx="8" fill="rgba(46,160,67,.15)" stroke="rgba(63,185,80,.4)" stroke-width="1"/><text x="376.73" y="323" text-anchor="middle" font-size="8.5" font-weight="700" letter-spacing=".06em" fill="#3fb950">NEW</text></g></g>
<g class="cardsh context" filter="drop-shadow(0 1px 2px rgba(0,0,0,.28))" opacity="0.82"><rect class="card" x="456" y="320" width="180" height="62" rx="10" fill="#1c2128" stroke-width="1" stroke="#3d444d"/>
<rect class="chip" x="470" y="338" width="26" height="26" rx="7" fill="rgba(110,118,129,.18)"/><g><rect class="glyph-stroke" x="475" y="345" width="16" height="12" rx="2" stroke="#9198a1" stroke-width="1.4" fill="none"/>
<path class="glyph-stroke" d="M475,347 l8,6 8,-6" stroke="#9198a1" stroke-width="1.4" fill="none"/></g>
<text class="ntitle" x="506" y="347" font-size="11.5" font-weight="600" fill="#e6edf3">Target repository</text>
<text class="nsub" x="506" y="365" font-size="9.5" fill="#9198a1" font-family="ui-monospace, SFMono-Regular, &quot;SF Mono&quot;, Menlo, Consolas, monospace">README.md, composer…</text></g>
<g class="cardsh context" filter="drop-shadow(0 1px 2px rgba(0,0,0,.28))" opacity="0.82"><rect class="card" x="648" y="320" width="180" height="62" rx="10" fill="#1c2128" stroke-width="1" stroke="#3d444d"/>
<rect class="chip" x="662" y="338" width="26" height="26" rx="7" fill="rgba(110,118,129,.18)"/><g><rect class="glyph-stroke" x="667" y="345" width="16" height="12" rx="2" stroke="#9198a1" stroke-width="1.4" fill="none"/>
<path class="glyph-stroke" d="M667,347 l8,6 8,-6" stroke="#9198a1" stroke-width="1.4" fill="none"/></g>
<text class="ntitle" x="698" y="347" font-size="11.5" font-weight="600" fill="#e6edf3">OpenCode</text>
<text class="nsub" x="698" y="365" font-size="9.5" fill="#9198a1" font-family="ui-monospace, SFMono-Regular, &quot;SF Mono&quot;, Menlo, Consolas, monospace">LLM agent CLI</text></g></g>
<g><g><rect class="lpill" x="200.49" y="286.5" width="35.03" height="15" rx="7.5" fill="#0d1117" stroke="#21262d" stroke-width="1"/><text class="ltext ltext-added" x="218" y="297.5" text-anchor="middle" font-size="9.5" font-weight="600" fill="#3fb950">load</text></g>
<g><rect class="lpill" x="546.96" y="278.5" width="77.58" height="15" rx="7.5" fill="#0d1117" stroke="#21262d" stroke-width="1"/><text class="ltext ltext-added" x="585.75" y="289.5" text-anchor="middle" font-size="9.5" font-weight="600" fill="#3fb950">opencode run</text></g>
<g><rect class="lpill" x="394.18" y="285" width="87.64" height="15" rx="7.5" fill="#0d1117" stroke="#21262d" stroke-width="1"/><text class="ltext ltext-added" x="438" y="296" text-anchor="middle" font-size="9.5" font-weight="600" fill="#3fb950">pinned worktree</text></g></g>
</svg>